<svg xmlns="http://www.w3.org/2000/svg" width="643.1606" height="129.3024" viewBox="0 0 643.1606 129.3024"><defs><style>.cls-1{fill:#fff;}</style></defs><title>oligomaster_logo_white2</title><g id="Layer_5" data-name="Layer 5"><g id="white"><path class="cls-1" d="M298.3172,254.9007c-1.5613-10.2872-7.0662-18.0934-15.2209-24.306a73.8267,73.8267,0,0,1-8.7866-7.6937c-5.1306-5.39-6.0726-11.8709-3.6454-18.7477a18.38,18.38,0,0,1,14.9571-12.6326c11.4142-1.9712,20.371,2.74,26.5258,11.939,6.87,10.2677,12.8714,21.12,19.17,31.765q6.2641,10.5869,12.2929,21.3126a26.161,26.161,0,0,1-45.284,26.2052c-1.0631-1.7755-2.0967-3.5687-3.3544-5.7122-7.4257,12.1815-17.777,19.1155-31.9948,19.1311-14.234.0156-24.638-6.8281-32.1349-19.1818-1.05,1.8214-1.9021,3.3038-2.7583,4.7838q-7.5748,13.0937-22.6852,13.8115c-12.4265.5654-24.3733-9.4267-26.22-21.763a26.3116,26.3116,0,0,1,3.2561-17.68c9.6775-16.6151,19.3379-33.2407,29.1253-49.791,4.2945-7.2619,10.2887-12.5564,18.7-14.6548,9.87-2.4622,19.84,1.8182,24.0116,10.2912,4.0643,8.2542,2.2,17.1278-5.0065,23.3384-3.5678,3.0747-7.3376,5.9172-10.87,9.0308a30.8565,30.8565,0,0,0-8.8529,12.8263c-2.0714,5.7871-1.7815,11.3452,2.5957,16.0032,4.448,4.7333,10.0639,4.8847,15.8867,3.1931,4.9-1.4236,8.3858-4.949,11.9778-8.3117a100.3639,100.3639,0,0,1,8.2824-7.3722,21.0449,21.0449,0,0,1,15.8325-4.0635c7.1288.98,12.31,6.3206,13.9443,13.8437a6.5574,6.5574,0,0,0,.6447,1.778C298.91,262.3449,298.6388,257.02,298.3172,254.9007Z" transform="translate(-178.8394 -166.859)"/><path class="cls-1" d="M276.8892,181.827a5.9006,5.9006,0,1,1-5.7578-6.0919A5.9057,5.9057,0,0,1,276.8892,181.827Z" transform="translate(-178.8394 -166.859)"/><path class="cls-1" d="M257.6187,184.59a4.4174,4.4174,0,1,1-4.3222,4.3905A4.3948,4.3948,0,0,1,257.6187,184.59Z" transform="translate(-178.8394 -166.859)"/><path class="cls-1" d="M265.1236,166.859c1.76.2448,2.896,1.1721,2.8678,2.9969a2.9,2.9,0,0,1-5.8-.0583C262.2028,167.9778,263.3547,167.0665,265.1236,166.859Z" transform="translate(-178.8394 -166.859)"/><path class="cls-1" d="M406.3706,278.7025q0,17.026-19.0808,17.0749-19.0808,0-19.0808-17.0749V225.1783q0-17.026,19.0808-17.026t19.0808,17.026Zm-11.3017-53.5242q0-7.24-7.73-7.2409h-.0979q-7.7314,0-7.73,7.2409v53.5242q0,7.2911,7.7791,7.29t7.7791-7.29Z" transform="translate(-178.8394 -166.859)"/><path class="cls-1" d="M412.101,294.1628V209.3265h11.3017v75.1h22.8481v9.7361Z" transform="translate(-178.8394 -166.859)"/><path class="cls-1" d="M448.801,209.3265h11.3017v84.8363H448.801Z" transform="translate(-178.8394 -166.859)"/><path class="cls-1" d="M504.2382,278.7025q0,17.026-19.0808,17.0749-19.0808,0-19.0808-17.0749V225.1783q0-17.026,19.0808-17.026t19.0808,17.026v10.47H492.9364v-10.47q0-7.24-7.73-7.2409h-.0979q-7.7314,0-7.73,7.2409v53.5242q0,7.2911,7.7791,7.29t7.7791-7.29v-21.87h-7.2409v-9.785h18.5427Z" transform="translate(-178.8394 -166.859)"/><path class="cls-1" d="M547.1517,278.7025q0,17.026-19.0808,17.0749-19.0808,0-19.0808-17.0749V225.1783q0-17.026,19.0808-17.026t19.0808,17.026ZM535.85,225.1783q0-7.24-7.73-7.2409h-.0979q-7.7314,0-7.73,7.2409v53.5242q0,7.2911,7.7791,7.29t7.7791-7.29Z" transform="translate(-178.8394 -166.859)"/><path class="cls-1" d="M582.58,273.5164l17.9066-64.19h11.5953v84.8363H601.3669v-60.08l-14.9711,60.08h-7.29l-15.3625-59.7377v59.7377H552.882V209.3265h11.6442Z" transform="translate(-178.8394 -166.859)"/><path class="cls-1" d="M655.68,264.6609l4.5011,29.5019H648.6837L645.895,275.62H628.6244l-2.8377,18.5427h-11.4l4.4033-29.404,9.9318-55.4323h17.0749Zm-11.2528,1.1253-7.192-47.9467-7.192,47.9467Z" transform="translate(-178.8394 -166.859)"/><path class="cls-1" d="M661.5082,225.1783q0-17.026,19.0808-17.026t19.0808,17.026v10.47H688.3682v-10.47q0-7.24-7.73-7.2409H680.54q-7.7314,0-7.73,7.2409v7.9259q0,6.5572,14.09,15.4114,12.7695,8.025,12.7695,19.13v11.0571q0,17.0755-19.0319,17.0749-19.13-.05-19.13-17.0749V268.2814H672.81v10.4211q0,7.2911,7.828,7.29,7.73,0,7.73-7.29v-9.9807q0-6.9957-14.09-15.9007-12.7695-8.0231-12.7695-19.4233Z" transform="translate(-178.8394 -166.859)"/><path class="cls-1" d="M739.6467,209.3265v9.785H726.2412v75.0513H714.9394V219.1116H701.485v-9.785Z" transform="translate(-178.8394 -166.859)"/><path class="cls-1" d="M742.4415,209.3265h34.15v9.785H753.7432v27.7406h19.6679v9.834H753.7432v27.7406h22.8481v9.7361h-34.15Z" transform="translate(-178.8394 -166.859)"/><path class="cls-1" d="M780.8539,209.3265h19.3744q17.5635.05,17.5641,17.0749v13.1609q0,10.6174-11.6931,14.4329L822,294.1628H809.5241l-12.9652-38.602-4.4033.5382v38.0638H780.8539Zm11.3017,9.785v27.7406H796.95a17.6046,17.6046,0,0,0,4.6968-.44,6.7226,6.7226,0,0,0,4.8436-6.85V226.4014q0-7.2892-7.73-7.29Z" transform="translate(-178.8394 -166.859)"/></g></g></svg>