<svg xmlns="http://www.w3.org/2000/svg" viewBox="0 0 643.16 129.3"><defs><style>.cls-1{fill:#fff;}</style></defs><title>oligomaster_logo_white</title><g id="Layer_5" data-name="Layer 5"><g id="white"><path class="cls-1" d="M298.32,254.9c-1.56-10.29-7.07-18.09-15.22-24.31a73.83,73.83,0,0,1-8.79-7.69c-5.13-5.39-6.07-11.87-3.65-18.75a18.38,18.38,0,0,1,15-12.63c11.41-2,20.37,2.74,26.53,11.94,6.87,10.27,12.87,21.12,19.17,31.77q6.26,10.59,12.29,21.31a26.16,26.16,0,0,1-45.28,26.21c-1.06-1.78-2.1-3.57-3.35-5.71-7.43,12.18-17.78,19.12-32,19.13s-24.64-6.83-32.13-19.18l-2.76,4.78q-7.57,13.09-22.69,13.81c-12.43.57-24.37-9.43-26.22-21.76a26.31,26.31,0,0,1,3.26-17.68c9.68-16.62,19.34-33.24,29.13-49.79,4.29-7.26,10.29-12.56,18.7-14.65,9.87-2.46,19.84,1.82,24,10.29,4.06,8.25,2.2,17.13-5,23.34-3.57,3.07-7.34,5.92-10.87,9a30.86,30.86,0,0,0-8.85,12.83c-2.07,5.79-1.78,11.35,2.6,16s10.06,4.88,15.89,3.19c4.9-1.42,8.39-4.95,12-8.31a100.36,100.36,0,0,1,8.28-7.37,21,21,0,0,1,15.83-4.06c7.13,1,12.31,6.32,13.94,13.84a6.56,6.56,0,0,0,.64,1.78C298.91,262.34,298.64,257,298.32,254.9Z" transform="translate(-178.84 -166.86)"/><path class="cls-1" d="M276.89,181.83a5.9,5.9,0,1,1-5.76-6.09A5.91,5.91,0,0,1,276.89,181.83Z" transform="translate(-178.84 -166.86)"/><path class="cls-1" d="M257.62,184.59A4.42,4.42,0,1,1,253.3,189,4.39,4.39,0,0,1,257.62,184.59Z" transform="translate(-178.84 -166.86)"/><path class="cls-1" d="M265.12,166.86c1.76.24,2.9,1.17,2.87,3a2.9,2.9,0,0,1-5.8-.06C262.2,168,263.35,167.07,265.12,166.86Z" transform="translate(-178.84 -166.86)"/><path class="cls-1" d="M406.37,278.7q0,17-19.08,17.07T368.21,278.7V225.18q0-17,19.08-17t19.08,17Zm-11.3-53.52q0-7.24-7.73-7.24h-.1q-7.73,0-7.73,7.24V278.7q0,7.29,7.78,7.29t7.78-7.29Z" transform="translate(-178.84 -166.86)"/><path class="cls-1" d="M412.1,294.16V209.33h11.3v75.1h22.85v9.74Z" transform="translate(-178.84 -166.86)"/><path class="cls-1" d="M448.8,209.33h11.3v84.84H448.8Z" transform="translate(-178.84 -166.86)"/><path class="cls-1" d="M504.24,278.7q0,17-19.08,17.07T466.08,278.7V225.18q0-17,19.08-17t19.08,17v10.47h-11.3V225.18q0-7.24-7.73-7.24h-.1q-7.73,0-7.73,7.24V278.7q0,7.29,7.78,7.29t7.78-7.29V256.83H485.7V247h18.54Z" transform="translate(-178.84 -166.86)"/><path class="cls-1" d="M547.15,278.7q0,17-19.08,17.07T509,278.7V225.18q0-17,19.08-17t19.08,17Zm-11.3-53.52q0-7.24-7.73-7.24H528q-7.73,0-7.73,7.24V278.7q0,7.29,7.78,7.29t7.78-7.29Z" transform="translate(-178.84 -166.86)"/><path class="cls-1" d="M582.58,273.52l17.91-64.19h11.6v84.84H601.37V234.08l-15,60.08h-7.29l-15.36-59.74v59.74H552.88V209.33h11.64Z" transform="translate(-178.84 -166.86)"/><path class="cls-1" d="M655.68,264.66l4.5,29.5h-11.5l-2.79-18.54H628.62l-2.84,18.54h-11.4l4.4-29.4,9.93-55.43H645.8Zm-11.25,1.13-7.19-47.95L630,265.79Z" transform="translate(-178.84 -166.86)"/><path class="cls-1" d="M661.51,225.18q0-17,19.08-17t19.08,17v10.47h-11.3V225.18q0-7.24-7.73-7.24h-.1q-7.73,0-7.73,7.24v7.93q0,6.56,14.09,15.41,12.77,8,12.77,19.13V278.7q0,17.08-19,17.07T661.51,278.7V268.28h11.3V278.7q0,7.29,7.83,7.29t7.73-7.29v-10q0-7-14.09-15.9-12.77-8-12.77-19.42Z" transform="translate(-178.84 -166.86)"/><path class="cls-1" d="M739.65,209.33v9.79H726.24v75.05h-11.3V219.11H701.49v-9.79Z" transform="translate(-178.84 -166.86)"/><path class="cls-1" d="M742.44,209.33h34.15v9.79H753.74v27.74h19.67v9.83H753.74v27.74h22.85v9.74H742.44Z" transform="translate(-178.84 -166.86)"/><path class="cls-1" d="M780.85,209.33h19.37q17.56,0,17.56,17.07v13.16q0,10.62-11.69,14.43L822,294.16H809.52l-13-38.6-4.4.54v38.06h-11.3Zm11.3,9.79v27.74H797a17.6,17.6,0,0,0,4.7-.44,6.72,6.72,0,0,0,4.84-6.85V226.4q0-7.29-7.73-7.29Z" transform="translate(-178.84 -166.86)"/></g></g></svg>